<svg width="25" height="25" viewBox="0 0 25 25" fill="none" xmlns="http://www.w3.org/2000/svg">
<mask id="mask0_20_108" style="mask-type:luminance" maskUnits="userSpaceOnUse" x="0" y="0" width="25" height="25">
<rect width="25" height="25" fill="white"/>
</mask>
<g mask="url(#mask0_20_108)">
<path fill-rule="evenodd" clip-rule="evenodd" d="M25 12.5C25 12.5 20.3125 3.90625 12.5 3.90625C4.6875 3.90625 0 12.5 0 12.5C0 12.5 4.6875 21.0938 12.5 21.0938C20.3125 21.0938 25 12.5 25 12.5ZM1.83282 12.5C2.58832 13.6482 3.45727 14.7177 4.42657 15.6922C6.43751 17.7063 9.18751 19.5313 12.5 19.5313C15.8125 19.5313 18.5609 17.7063 20.575 15.6922C21.5443 14.7177 22.4133 13.6482 23.1688 12.5C22.4133 11.3518 21.5443 10.2823 20.575 9.30781C18.5609 7.29375 15.8109 5.46875 12.5 5.46875C9.18751 5.46875 6.43907 7.29375 4.42501 9.30781C3.45569 10.2823 2.58674 11.3518 1.83125 12.5L1.83282 12.5Z" fill="#8F9185"/>
<path fill-rule="evenodd" clip-rule="evenodd" d="M12.5 8.59375C10.3426 8.59375 8.59376 10.3426 8.59375 12.5C8.59374 14.6573 10.3426 16.4062 12.5 16.4062C14.6573 16.4063 16.4062 14.6574 16.4062 12.5C16.4063 10.3427 14.6574 8.59377 12.5 8.59375H12.5ZM7.03125 12.5C7.03125 10.5462 8.07359 8.74082 9.76562 7.76392C11.4577 6.78703 13.5423 6.78702 15.2344 7.76392C16.9264 8.74082 17.9687 10.5462 17.9688 12.5C17.9688 14.4538 16.9264 16.2592 15.2344 17.2361C13.5423 18.213 11.4577 18.213 9.76563 17.2361C8.07359 16.2592 7.03125 14.4538 7.03125 12.5V12.5Z" fill="#8F9185"/>
</g>
</svg>
