<svg width="21" height="23" viewBox="0 0 21 23" fill="none" xmlns="http://www.w3.org/2000/svg">
<path d="M10.3333 0C7.57191 0 5.33333 2.30853 5.33333 5.15625C5.33333 8.00397 7.57191 10.3125 10.3333 10.3125C13.0948 10.3125 15.3333 8.00397 15.3333 5.15625C15.3333 2.30853 13.0948 0 10.3333 0Z" fill="#B6BD16"/>
<path d="M5 13.0625C2.23858 13.0625 0 15.371 0 18.2188V19.8526C0 20.8883 0.727845 21.7714 1.71903 21.9383C7.42413 22.8988 13.2425 22.8988 18.9476 21.9383C19.9388 21.7714 20.6667 20.8883 20.6667 19.8526V18.2188C20.6667 15.371 18.4281 13.0625 15.6667 13.0625H15.2122C14.9662 13.0625 14.7217 13.1026 14.4879 13.1814L13.3339 13.57C11.3842 14.2265 9.28249 14.2265 7.33278 13.57L6.17876 13.1814C5.94492 13.1026 5.70048 13.0625 5.45449 13.0625H5Z" fill="#B6BD16"/>
</svg>
