<svg width="165" height="38" viewBox="0 0 165 38" fill="none" xmlns="http://www.w3.org/2000/svg">
<g clip-path="url(#clip0_116_193)">
<rect width="165" height="38" rx="15" fill="#242C32" fill-opacity="0.5"/>
<rect x="16" y="3" width="32" height="32" rx="16" fill="#303746"/>
<mask id="mask0_116_193" style="mask-type:alpha" maskUnits="userSpaceOnUse" x="20" y="7" width="24" height="24">
<rect x="20" y="7" width="24" height="24" fill="#D9D9D9"/>
</mask>
<g mask="url(#mask0_116_193)">
<path d="M30.6 23.6L37.65 16.55L36.25 15.15L30.6 20.8L27.75 17.95L26.35 19.35L30.6 23.6ZM32 29C30.6167 29 29.3167 28.7373 28.1 28.212C26.8833 27.6873 25.825 26.975 24.925 26.075C24.025 25.175 23.3127 24.1167 22.788 22.9C22.2627 21.6833 22 20.3833 22 19C22 17.6167 22.2627 16.3167 22.788 15.1C23.3127 13.8833 24.025 12.825 24.925 11.925C25.825 11.025 26.8833 10.3123 28.1 9.787C29.3167 9.26233 30.6167 9 32 9C33.3833 9 34.6833 9.26233 35.9 9.787C37.1167 10.3123 38.175 11.025 39.075 11.925C39.975 12.825 40.6873 13.8833 41.212 15.1C41.7373 16.3167 42 17.6167 42 19C42 20.3833 41.7373 21.6833 41.212 22.9C40.6873 24.1167 39.975 25.175 39.075 26.075C38.175 26.975 37.1167 27.6873 35.9 28.212C34.6833 28.7373 33.3833 29 32 29Z" fill="#00DF80"/>
</g>
<path d="M66.805 25V22.943H69.848C70.6187 22.943 71.293 22.7843 71.871 22.467C72.449 22.1383 72.8967 21.6793 73.214 21.09C73.5427 20.5007 73.707 19.8037 73.707 18.999C73.707 18.217 73.5427 17.537 73.214 16.959C72.8853 16.3697 72.432 15.9163 71.854 15.599C71.276 15.2703 70.6073 15.106 69.848 15.106H66.754V13.049H69.882C70.766 13.049 71.582 13.1963 72.33 13.491C73.0893 13.7857 73.7467 14.205 74.302 14.749C74.8687 15.2817 75.305 15.9107 75.611 16.636C75.9283 17.3613 76.087 18.1547 76.087 19.016C76.087 19.8773 75.9283 20.6763 75.611 21.413C75.305 22.1383 74.8743 22.773 74.319 23.317C73.7637 23.8497 73.1063 24.2633 72.347 24.558C71.599 24.8527 70.7887 25 69.916 25H66.805ZM65.224 25V13.049H67.536V25H65.224ZM81.1372 25.17C80.3099 25.17 79.5619 24.983 78.8932 24.609C78.2359 24.2237 77.7089 23.708 77.3122 23.062C76.9269 22.4047 76.7342 21.6737 76.7342 20.869C76.7342 20.0643 76.9269 19.3447 77.3122 18.71C77.6975 18.064 78.2245 17.554 78.8932 17.18C79.5619 16.7947 80.3042 16.602 81.1202 16.602C81.9589 16.602 82.7069 16.7947 83.3642 17.18C84.0329 17.554 84.5599 18.064 84.9452 18.71C85.3305 19.3447 85.5232 20.0643 85.5232 20.869C85.5232 21.6737 85.3305 22.4047 84.9452 23.062C84.5599 23.708 84.0329 24.2237 83.3642 24.609C82.7069 24.983 81.9645 25.17 81.1372 25.17ZM81.1202 23.096C81.5395 23.096 81.9079 23.0053 82.2252 22.824C82.5539 22.6313 82.8032 22.3707 82.9732 22.042C83.1545 21.702 83.2452 21.3167 83.2452 20.886C83.2452 20.4553 83.1545 20.0757 82.9732 19.747C82.7919 19.4183 82.5425 19.1633 82.2252 18.982C81.9079 18.7893 81.5395 18.693 81.1202 18.693C80.7122 18.693 80.3495 18.7893 80.0322 18.982C79.7149 19.1633 79.4655 19.4183 79.2842 19.747C79.1029 20.0757 79.0122 20.4553 79.0122 20.886C79.0122 21.3167 79.1029 21.702 79.2842 22.042C79.4655 22.3707 79.7149 22.6313 80.0322 22.824C80.3495 23.0053 80.7122 23.096 81.1202 23.096ZM92.0739 25V20.291C92.0739 19.8037 91.9209 19.407 91.6149 19.101C91.3089 18.795 90.9122 18.642 90.4249 18.642C90.1076 18.642 89.8242 18.71 89.5749 18.846C89.3256 18.982 89.1272 19.1747 88.9799 19.424C88.8439 19.6733 88.7759 19.9623 88.7759 20.291L87.9089 19.849C87.9089 19.203 88.0449 18.642 88.3169 18.166C88.6002 17.6787 88.9856 17.299 89.4729 17.027C89.9716 16.755 90.5326 16.619 91.1559 16.619C91.7566 16.619 92.2949 16.772 92.7709 17.078C93.2469 17.3727 93.6209 17.7637 93.8929 18.251C94.1649 18.727 94.3009 19.2427 94.3009 19.798V25H92.0739ZM86.5489 25V16.789H88.7759V25H86.5489ZM99.6138 25.17C98.7525 25.17 97.9875 24.9887 97.3188 24.626C96.6501 24.252 96.1175 23.742 95.7208 23.096C95.3355 22.45 95.1428 21.7133 95.1428 20.886C95.1428 20.07 95.3298 19.3447 95.7038 18.71C96.0891 18.064 96.6105 17.554 97.2678 17.18C97.9251 16.7947 98.6561 16.602 99.4608 16.602C100.254 16.602 100.951 16.7833 101.552 17.146C102.164 17.4973 102.64 17.9847 102.98 18.608C103.331 19.22 103.507 19.917 103.507 20.699C103.507 20.8463 103.495 20.9993 103.473 21.158C103.461 21.3053 103.433 21.4753 103.388 21.668L96.4858 21.685V20.019L102.351 20.002L101.45 20.699C101.427 20.2117 101.336 19.8037 101.178 19.475C101.03 19.1463 100.809 18.897 100.515 18.727C100.231 18.5457 99.8801 18.455 99.4608 18.455C99.0188 18.455 98.6335 18.557 98.3048 18.761C97.9761 18.9537 97.7211 19.2313 97.5398 19.594C97.3698 19.9453 97.2848 20.3647 97.2848 20.852C97.2848 21.3507 97.3755 21.787 97.5568 22.161C97.7495 22.5237 98.0215 22.807 98.3728 23.011C98.7241 23.2037 99.1321 23.3 99.5968 23.3C100.016 23.3 100.396 23.232 100.736 23.096C101.076 22.9487 101.37 22.7333 101.62 22.45L102.929 23.759C102.532 24.2237 102.045 24.575 101.467 24.813C100.9 25.051 100.282 25.17 99.6138 25.17Z" fill="white"/>
<circle cx="32" cy="41" r="106" fill="url(#paint0_radial_116_193)" fill-opacity="0.12"/>
</g>
<defs>
<radialGradient id="paint0_radial_116_193" cx="0" cy="0" r="1" gradientUnits="userSpaceOnUse" gradientTransform="translate(32 41) rotate(90) scale(106)">
<stop stop-color="#00ED51"/>
<stop offset="1" stop-color="#00ED7B" stop-opacity="0"/>
</radialGradient>
<clipPath id="clip0_116_193">
<rect width="165" height="38" rx="15" fill="white"/>
</clipPath>
</defs>
</svg>
