<svg width="16" height="17" viewBox="0 0 16 17" fill="none" xmlns="http://www.w3.org/2000/svg">
<path d="M1 6H14.3333M1 6V13.3335C1 14.2669 1 14.7334 1.18166 15.0899C1.34144 15.4035 1.59623 15.6587 1.90983 15.8185C2.266 16 2.73249 16 3.66409 16H11.6692C12.6008 16 13.0667 16 13.4228 15.8185C13.7364 15.6587 13.9921 15.4035 14.1519 15.0899C14.3333 14.7337 14.3333 14.2679 14.3333 13.3363V6M1 6V5.3335C1 4.40008 1 3.93302 1.18166 3.5765C1.34144 3.26289 1.59623 3.00811 1.90983 2.84832C2.26635 2.66667 2.73341 2.66667 3.66683 2.66667H4.33333M14.3333 6V5.33076C14.3333 4.39916 14.3333 3.93267 14.1519 3.5765C13.9921 3.26289 13.7364 3.00811 13.4228 2.84832C13.0663 2.66667 12.6003 2.66667 11.6668 2.66667H11M4.33333 2.66667H11M4.33333 2.66667V1M11 2.66667V1M7.45833 12.6667C7.57339 12.6667 7.66667 12.5734 7.66667 12.4583V9.54167C7.66667 9.42661 7.57339 9.33333 7.45833 9.33333H4.54167C4.42661 9.33333 4.33333 9.42661 4.33333 9.54167V12.4583C4.33333 12.5734 4.42661 12.6667 4.54167 12.6667H7.45833Z" stroke="#99977A" stroke-width="2" stroke-linecap="round" stroke-linejoin="round"/>
</svg>
