<svg width="16" height="21" viewBox="0 0 16 21" fill="none" xmlns="http://www.w3.org/2000/svg">
<path d="M1 4.73356V15.7996C1 17.3875 1 18.1813 1.23814 18.6671C1.67952 19.5677 2.64684 20.0852 3.64095 19.953C4.1773 19.8816 4.83791 19.4412 6.15912 18.5604L6.16228 18.5583C6.68597 18.2091 6.94784 18.0346 7.22178 17.9377C7.72491 17.7599 8.27389 17.7599 8.77702 17.9377C9.05151 18.0348 9.31441 18.21 9.8402 18.5606C11.1614 19.4414 11.8228 19.8814 12.3591 19.9528C13.3532 20.085 14.3205 19.5677 14.7619 18.6671C15 18.1813 15 17.3872 15 15.7996V4.72973C15 3.42549 15 2.7724 14.7459 2.27376C14.5222 1.83472 14.1643 1.47802 13.7253 1.25432C13.2262 1 12.5737 1 11.2669 1H4.73356C3.42677 1 2.77289 1 2.27376 1.25432C1.83472 1.47802 1.47802 1.83472 1.25432 2.27376C1 2.77289 1 3.42677 1 4.73356Z" stroke="white" stroke-width="2" stroke-linecap="round" stroke-linejoin="round"/>
</svg>
