<svg width="25" height="25" viewBox="0 0 25 25" fill="none" xmlns="http://www.w3.org/2000/svg">
<path d="M24.3216 5.47385L19.5185 0.671249C18.6234 -0.22375 17.1728 -0.22375 16.2777 0.671249L2.78259 14.1651L0.838101 16.1094C0.301526 16.6459 0 17.3723 0 18.132V23.8344C0 24.4777 0.52233 25 1.16575 25H6.86864C7.62839 25 8.35489 24.6985 8.89147 24.162L11.3892 21.6645L24.3287 8.72623C25.2238 7.83123 25.2238 6.38072 24.3287 5.48572L24.3192 5.47622L24.3216 5.47385ZM19.7251 7.9618L18.7564 8.93039C18.2839 9.40282 17.5147 9.40282 17.0422 8.93039L16.0711 7.95943C15.5987 7.487 15.5987 6.71782 16.0711 6.2454L17.0398 5.27681C17.5123 4.80438 18.2815 4.80438 18.754 5.27681L19.7251 6.24777C20.1975 6.7202 20.1975 7.48938 19.7251 7.9618ZM3.9887 18.3267L11.7572 10.559C12.1821 10.134 12.873 10.134 13.3004 10.559L14.4424 11.7009C14.8674 12.1258 14.8674 12.8166 14.4424 13.244L6.67395 21.0117C6.55287 21.1328 6.38904 21.2016 6.2181 21.2016H4.44455C4.08842 21.2016 3.79876 20.912 3.79876 20.5559V18.7825C3.79876 18.6116 3.86762 18.4478 3.9887 18.3267Z" fill="#B6BD16"/>
</svg>
